<?xml version="1.0" standalone="no"?>
<!DOCTYPE svg PUBLIC "-//W3C//DTD SVG 20010904//EN"
 "http://www.w3.org/TR/2001/REC-SVG-20010904/DTD/svg10.dtd">
<svg version="1.0" xmlns="http://www.w3.org/2000/svg"
 width="256.000000pt" height="256.000000pt" viewBox="0 0 256.000000 256.000000"
 preserveAspectRatio="xMidYMid meet">
<metadata>
Created by potrace 1.14, written by Peter Selinger 2001-2017
</metadata>
<g transform="translate(0.000000,256.000000) scale(0.100000,-0.100000)"
fill="#000000" stroke="none">
<path d="M546 2295 c-16 -5 -41 -25 -53 -44 l-23 -34 0 -939 c0 -1024 -3 -974
57 -1014 27 -17 63 -18 748 -19 670 0 722 1 756 18 69 34 65 -20 64 1018 0
875 -1 937 -18 962 -43 65 3 62 -785 62 -453 0 -726 -4 -746 -10z m1456 -83
c20 -20 21 -1827 1 -1859 l-13 -23 -708 0 c-537 0 -711 3 -720 12 -9 9 -12
230 -12 934 0 891 1 923 19 936 27 19 1414 19 1433 0z"/>
<path d="M727 2053 c-30 -35 -25 -78 11 -96 63 -32 117 33 76 91 -19 27 -64
29 -87 5z"/>
<path d="M930 2050 c-39 -39 -12 -100 44 -100 40 0 59 20 58 61 -1 55 -63 78
-102 39z"/>
<path d="M1610 2050 c-55 -55 22 -132 85 -86 24 17 23 73 -2 92 -26 19 -60 17
-83 -6z"/>
<path d="M1817 2052 c-18 -19 -22 -59 -9 -79 4 -6 19 -16 34 -22 22 -8 31 -6
52 10 30 23 33 54 10 87 -19 27 -64 29 -87 4z"/>
<path d="M675 1480 l0 -40 617 0 618 0 0 40 0 40 -618 0 -617 0 0 -40z"/>
<path d="M679 1308 c-5 -30 -4 -54 2 -63 5 -7 219 -10 616 -10 l608 0 0 40 0
40 -612 0 c-337 0 -614 -3 -614 -7z"/>
<path d="M678 1103 c-2 -5 -3 -21 -3 -38 l0 -30 618 -3 617 -2 0 40 0 40 -614
0 c-338 0 -616 -3 -618 -7z"/>
<path d="M682 900 c-4 -3 -7 -21 -7 -40 l0 -35 618 -3 617 -2 0 40 c0 22 -3
41 -7 41 -26 4 -1216 3 -1221 -1z"/>
<path d="M674 663 c1 -21 4 -40 8 -43 3 -3 280 -5 615 -5 l608 0 3 43 3 42
-619 0 -619 0 1 -37z"/>
</g>
</svg>
